<?xml version="1.0" standalone="no"?>
<!DOCTYPE svg PUBLIC "-//W3C//DTD SVG 20010904//EN"
 "http://www.w3.org/TR/2001/REC-SVG-20010904/DTD/svg10.dtd">
<svg version="1.0" xmlns="http://www.w3.org/2000/svg"
 width="300.000000pt" height="300.000000pt" viewBox="0 0 300.000000 300.000000"
 preserveAspectRatio="xMidYMid meet">
<metadata>
Created by potrace 1.10, written by Peter Selinger 2001-2011
</metadata>
<g transform="translate(0.000000,300.000000) scale(0.100000,-0.100000)"
fill="#000000" stroke="none">
<path d="M1122 2598 c-16 -16 -15 -53 2 -71 8 -7 16 -31 18 -53 l3 -39 -105
-5 c-86 -4 -112 -9 -141 -28 -32 -19 -69 -61 -69 -77 0 -13 84 -3 105 13 20
16 47 18 219 20 217 3 242 -3 271 -58 8 -16 15 -55 15 -90 l0 -60 36 0 36 0
-3 78 c-3 65 -9 85 -32 120 -41 63 -87 82 -202 82 l-95 0 0 44 c0 30 5 46 15
50 18 7 20 57 3 74 -7 7 -24 12 -38 12 -14 0 -31 -5 -38 -12z"/>
<path d="M812 2178 c6 -85 24 -126 75 -165 l36 -28 216 -3 c137 -2 230 1 253
8 22 6 51 27 73 53 l36 42 -40 3 c-30 2 -49 -3 -68 -17 -24 -20 -39 -21 -227
-21 -181 0 -204 2 -232 19 -38 23 -57 74 -52 137 l3 44 -39 0 -39 0 5 -72z"/>
<path d="M1006 2234 c-19 -18 -20 -28 -6 -55 20 -37 80 -18 80 26 0 42 -44 59
-74 29z"/>
<path d="M1252 2238 c-15 -15 -15 -51 0 -66 27 -27 78 -7 78 29 0 39 -52 63
-78 37z"/>
<path d="M1040 1891 c0 -39 4 -72 8 -75 14 -8 102 55 102 74 0 19 -69 70 -95
70 -12 0 -15 -14 -15 -69z"/>
<path d="M1218 1938 c-23 -13 -38 -30 -38 -41 0 -11 -4 -15 -12 -11 -6 4 -8 3
-4 -4 12 -20 104 -70 112 -62 13 13 5 140 -9 140 -7 0 -29 -10 -49 -22z"/>
</g>
</svg>
